<mxfile host="app.diagrams.net" agent="Mozilla/5.0 (Windows NT 10.0; Win64; x64) AppleWebKit/537.36 (KHTML, like Gecko) Chrome/130.0.0.0 Safari/537.36 Edg/130.0.0.0" version="24.8.3">
  <diagram id="R2lEEEUBdFMjLlhIrx00" name="Page-1">
    <mxGraphModel dx="880" dy="450" grid="1" gridSize="10" guides="1" tooltips="1" connect="1" arrows="1" fold="1" page="1" pageScale="1" pageWidth="850" pageHeight="1100" math="0" shadow="0" extFonts="Permanent Marker^https://fonts.googleapis.com/css?family=Permanent+Marker">
      <root>
        <mxCell id="0" />
        <mxCell id="1" parent="0" />
        <mxCell id="hVjyE5kcYEd4XrNnXji7-11" style="edgeStyle=orthogonalEdgeStyle;rounded=0;orthogonalLoop=1;jettySize=auto;html=1;exitX=0.5;exitY=1;exitDx=0;exitDy=0;entryX=0.5;entryY=0;entryDx=0;entryDy=0;" edge="1" parent="1" source="hVjyE5kcYEd4XrNnXji7-1" target="hVjyE5kcYEd4XrNnXji7-10">
          <mxGeometry relative="1" as="geometry" />
        </mxCell>
        <mxCell id="hVjyE5kcYEd4XrNnXji7-1" value="Clientes" style="whiteSpace=wrap;html=1;align=center;" vertex="1" parent="1">
          <mxGeometry x="140" y="80" width="100" height="40" as="geometry" />
        </mxCell>
        <mxCell id="hVjyE5kcYEd4XrNnXji7-2" value="Pedidos" style="whiteSpace=wrap;html=1;align=center;" vertex="1" parent="1">
          <mxGeometry x="300" y="170" width="100" height="40" as="geometry" />
        </mxCell>
        <mxCell id="hVjyE5kcYEd4XrNnXji7-3" value="ArtÃ­culos" style="whiteSpace=wrap;html=1;align=center;" vertex="1" parent="1">
          <mxGeometry x="300" y="60" width="100" height="40" as="geometry" />
        </mxCell>
        <mxCell id="hVjyE5kcYEd4XrNnXji7-4" value="Direcciones de envio" style="whiteSpace=wrap;html=1;align=center;" vertex="1" parent="1">
          <mxGeometry x="140" y="270" width="100" height="40" as="geometry" />
        </mxCell>
        <mxCell id="hVjyE5kcYEd4XrNnXji7-5" value="Cuerpo del pedido" style="whiteSpace=wrap;html=1;align=center;" vertex="1" parent="1">
          <mxGeometry x="450" y="300" width="100" height="40" as="geometry" />
        </mxCell>
        <mxCell id="hVjyE5kcYEd4XrNnXji7-6" value="Cabecera" style="whiteSpace=wrap;html=1;align=center;" vertex="1" parent="1">
          <mxGeometry x="450" y="220" width="100" height="40" as="geometry" />
        </mxCell>
        <mxCell id="hVjyE5kcYEd4XrNnXji7-7" value="Fabrica" style="whiteSpace=wrap;html=1;align=center;" vertex="1" parent="1">
          <mxGeometry x="600" y="180" width="100" height="40" as="geometry" />
        </mxCell>
        <mxCell id="hVjyE5kcYEd4XrNnXji7-13" style="edgeStyle=orthogonalEdgeStyle;rounded=0;orthogonalLoop=1;jettySize=auto;html=1;exitX=1;exitY=0.5;exitDx=0;exitDy=0;entryX=0;entryY=0.5;entryDx=0;entryDy=0;" edge="1" parent="1" source="hVjyE5kcYEd4XrNnXji7-8" target="hVjyE5kcYEd4XrNnXji7-1">
          <mxGeometry relative="1" as="geometry" />
        </mxCell>
        <mxCell id="hVjyE5kcYEd4XrNnXji7-8" value="Attribute" style="ellipse;whiteSpace=wrap;html=1;align=center;fontStyle=4;" vertex="1" parent="1">
          <mxGeometry x="30" y="70" width="70" height="20" as="geometry" />
        </mxCell>
        <mxCell id="hVjyE5kcYEd4XrNnXji7-14" style="edgeStyle=orthogonalEdgeStyle;rounded=0;orthogonalLoop=1;jettySize=auto;html=1;exitX=1;exitY=0.5;exitDx=0;exitDy=0;entryX=0;entryY=0.5;entryDx=0;entryDy=0;" edge="1" parent="1" source="hVjyE5kcYEd4XrNnXji7-9" target="hVjyE5kcYEd4XrNnXji7-1">
          <mxGeometry relative="1" as="geometry" />
        </mxCell>
        <mxCell id="hVjyE5kcYEd4XrNnXji7-15" value="" style="edgeStyle=orthogonalEdgeStyle;rounded=0;orthogonalLoop=1;jettySize=auto;html=1;" edge="1" parent="1" source="hVjyE5kcYEd4XrNnXji7-9" target="hVjyE5kcYEd4XrNnXji7-1">
          <mxGeometry relative="1" as="geometry" />
        </mxCell>
        <mxCell id="hVjyE5kcYEd4XrNnXji7-9" value="Attribute" style="ellipse;whiteSpace=wrap;html=1;align=center;" vertex="1" parent="1">
          <mxGeometry x="35" y="100" width="60" height="20" as="geometry" />
        </mxCell>
        <mxCell id="hVjyE5kcYEd4XrNnXji7-12" style="edgeStyle=orthogonalEdgeStyle;rounded=0;orthogonalLoop=1;jettySize=auto;html=1;exitX=0.5;exitY=1;exitDx=0;exitDy=0;entryX=0.5;entryY=0;entryDx=0;entryDy=0;" edge="1" parent="1" source="hVjyE5kcYEd4XrNnXji7-10" target="hVjyE5kcYEd4XrNnXji7-4">
          <mxGeometry relative="1" as="geometry" />
        </mxCell>
        <mxCell id="hVjyE5kcYEd4XrNnXji7-10" value="tiene" style="shape=rhombus;perimeter=rhombusPerimeter;whiteSpace=wrap;html=1;align=center;" vertex="1" parent="1">
          <mxGeometry x="130" y="170" width="120" height="60" as="geometry" />
        </mxCell>
      </root>
    </mxGraphModel>
  </diagram>
</mxfile>
